<svg
  width="118"
  height="28"
  viewBox="0 0 118 28"
  fill="none"
  xmlns="http://www.w3.org/2000/svg"
>
  <path d="M0 0H117.531V28H0V0Z" stroke="#E5E7EB" />
  <g clip-path="url(#clip0_6_515)">
    <g clip-path="url(#clip1_6_515)">
      <path
        d="M10.9922 2.26719C11.6438 2.03281 12.3563 2.03281 13.0125 2.26719L22.0125 5.48281C23.2031 5.90937 24 7.03906 24 8.30937V19.6906C24 20.9562 23.2031 22.0906 22.0078 22.5172L13.0078 25.7328C12.3562 25.9672 11.6437 25.9672 10.9875 25.7328L1.9875 22.5172C0.796875 22.0906 0 20.9609 0 19.6906V8.30937C0 7.04375 0.796875 5.90937 1.99219 5.48281L10.9922 2.26719ZM12 5.09375L3.85781 8L12 10.9062L20.1422 8L12 5.09375ZM13.5 22.3719L21 19.6953V10.8828L13.5 13.5594V22.3719Z"
        fill="#8B5CF6"
      />
    </g>
  </g>
  <defs>
    <clipPath id="clip0_6_515">
      <rect width="24" height="24" fill="white" transform="translate(0 2)" />
    </clipPath>
    <clipPath id="clip1_6_515">
      <path d="M0 2H24V26H0V2Z" fill="white" />
    </clipPath>
  </defs>
</svg>
