<svg
  width="16"
  height="16"
  viewBox="0 0 16 16"
  fill="none"
  xmlns="http://www.w3.org/2000/svg"
>
  <g clip-path="url(#clip0_6_551)">
    <path
      d="M4.89378 12.0281L3.92816 11.0625C3.66253 10.7969 3.56878 10.4125 3.68753 10.0562C3.78128 9.77812 3.90628 9.41562 4.05628 9H0.75003C0.48128 9 0.23128 8.85625 0.0969053 8.62187C-0.0374697 8.3875 -0.0343447 8.1 0.103155 7.86875L1.74378 5.10312C2.15003 4.41875 2.88441 4 3.67816 4H6.25003C6.32503 3.875 6.40003 3.75937 6.47503 3.64687C9.03441 -0.128126 12.8469 -0.253125 15.1219 0.165625C15.4844 0.23125 15.7657 0.515625 15.8344 0.878125C16.2532 3.15625 16.125 6.96562 12.3532 9.525C12.2438 9.6 12.125 9.675 12 9.75V12.3219C12 13.1156 11.5813 13.8531 10.8969 14.2563L8.13128 15.8969C7.90003 16.0344 7.61253 16.0375 7.37816 15.9031C7.14378 15.7688 7.00003 15.5219 7.00003 15.25V11.9C6.55941 12.0531 6.17503 12.1781 5.88441 12.2719C5.53441 12.3844 5.15316 12.2875 4.89066 12.0281H4.89378ZM12 5.25C12.3316 5.25 12.6495 5.1183 12.8839 4.88388C13.1183 4.64946 13.25 4.33152 13.25 4C13.25 3.66848 13.1183 3.35054 12.8839 3.11612C12.6495 2.8817 12.3316 2.75 12 2.75C11.6685 2.75 11.3506 2.8817 11.1161 3.11612C10.8817 3.35054 10.75 3.66848 10.75 4C10.75 4.33152 10.8817 4.64946 11.1161 4.88388C11.3506 5.1183 11.6685 5.25 12 5.25Z"
      fill="white"
    />
  </g>
  <defs>
    <clipPath id="clip0_6_551">
      <path d="M0 0H16V16H0V0Z" fill="white" />
    </clipPath>
  </defs>
</svg>
